<?xml version="1.0" standalone="no"?>
<!DOCTYPE svg PUBLIC "-//W3C//DTD SVG 20010904//EN"
 "http://www.w3.org/TR/2001/REC-SVG-20010904/DTD/svg10.dtd">
<svg version="1.0" xmlns="http://www.w3.org/2000/svg"
 width="886.000000pt" height="412.000000pt" viewBox="0 0 886.000000 412.000000"
 preserveAspectRatio="xMidYMid meet">
<metadata>
Created by potrace 1.11, written by Peter Selinger 2001-2013
</metadata>
<g transform="translate(0.000000,412.000000) scale(0.100000,-0.100000)"
fill="#000000" stroke="none">
<path d="M4058 3599 c-172 -287 -318 -522 -323 -523 -9 -1 -112 164 -162 259
-21 40 -26 64 -26 118 l0 68 -131 -220 c-72 -121 -133 -221 -136 -221 -3 0
-124 199 -270 442 -146 243 -277 459 -292 480 -15 20 -51 51 -80 68 l-53 30
-372 0 -373 0 -16 -25 c-10 -16 -14 -34 -10 -50 4 -14 170 -297 369 -628 200
-331 369 -618 375 -636 16 -47 15 -124 -3 -167 -8 -19 -170 -295 -360 -613
l-345 -577 0 -72 0 -72 174 0 175 0 313 521 c172 287 318 522 323 522 10 0
113 -163 162 -258 21 -40 26 -64 26 -118 l0 -68 131 220 c72 121 133 221 136
221 3 0 124 -199 270 -442 146 -243 277 -459 292 -480 15 -20 51 -51 80 -68
l53 -30 372 0 373 0 16 25 c10 16 14 34 10 50 -4 14 -170 297 -369 628 -200
331 -369 618 -375 636 -17 50 -14 130 7 176 10 22 177 305 371 629 193 323
356 601 362 617 8 23 6 35 -6 54 l-16 25 -180 0 -179 0 -313 -521z"/>
<path d="M0 2055 l0 -75 35 0 35 0 0 -280 0 -280 -35 0 -35 0 0 -75 0 -75 244
0 c270 0 323 6 412 50 282 138 276 621 -10 760 -85 41 -157 50 -418 50 l-228
0 0 -75z m471 -91 c112 -33 165 -132 157 -293 -9 -177 -91 -251 -278 -251
l-60 0 0 280 0 280 63 0 c35 0 88 -7 118 -16z"/>
<path d="M970 2055 l0 -75 55 0 55 0 0 -280 0 -280 -55 0 -55 0 0 -75 0 -75
380 0 380 0 0 135 0 135 -80 0 -80 0 0 -60 0 -60 -135 0 -135 0 0 110 0 110
110 0 110 0 0 75 0 75 -110 0 -110 0 0 95 0 95 135 0 135 0 0 -60 0 -60 80 0
80 0 0 135 0 135 -380 0 -380 0 0 -75z"/>
<path d="M6690 2054 c-99 -43 -144 -111 -144 -219 0 -123 43 -174 229 -269
102 -51 117 -62 133 -93 20 -37 14 -73 -17 -104 -62 -62 -169 -19 -189 77 l-8
39 -72 3 -72 3 0 -146 0 -145 70 0 70 0 0 35 c0 41 8 44 40 10 74 -79 233 -68
324 21 85 85 85 253 0 353 -29 33 -66 56 -169 106 -139 67 -150 75 -160 117
-5 21 -1 33 20 54 23 23 32 26 72 21 52 -6 98 -44 108 -88 7 -29 7 -29 81 -29
l74 0 0 130 0 130 -75 0 -75 0 0 -37 0 -37 -32 31 c-18 18 -46 37 -61 42 -40
15 -106 13 -147 -5z"/>
<path d="M4860 1985 l0 -75 60 0 60 0 0 -280 0 -280 -60 0 -60 0 0 -75 0 -75
240 0 240 0 0 75 0 75 -70 0 -70 0 0 110 0 110 95 0 95 0 0 75 0 75 -95 0 -95
0 0 95 0 95 130 0 130 0 0 -60 0 -60 85 0 85 0 0 135 0 135 -385 0 -385 0 0
-75z"/>
<path d="M5680 1985 l0 -75 55 0 55 0 0 -280 0 -280 -55 0 -55 0 0 -75 0 -75
380 0 380 0 0 135 0 135 -80 0 -80 0 0 -60 0 -60 -135 0 -135 0 0 110 0 110
110 0 110 0 0 75 0 75 -110 0 -110 0 0 95 0 95 135 0 135 0 0 -60 0 -60 80 0
80 0 0 135 0 135 -380 0 -380 0 0 -75z"/>
<path d="M7200 1885 l0 -175 75 0 75 0 0 100 0 100 65 0 65 0 0 -280 0 -280
-65 0 -65 0 0 -75 0 -75 240 0 240 0 0 75 0 75 -65 0 -65 0 0 280 0 280 70 0
70 0 0 -100 0 -100 70 0 70 0 0 175 0 175 -390 0 -390 0 0 -175z"/>
<path d="M1828 879 l-47 -99 50 0 c50 0 53 2 160 96 60 53 109 98 109 100 0 2
-51 4 -112 3 l-113 0 -47 -100z"/>
<path d="M913 956 c-83 -20 -157 -62 -212 -121 -129 -136 -155 -342 -66 -522
72 -146 213 -223 410 -223 191 0 326 75 400 223 l36 71 -83 42 c-46 23 -86 39
-89 36 -4 -4 -12 -24 -18 -44 -44 -138 -196 -205 -327 -144 -92 43 -137 126
-137 251 0 85 13 130 59 196 49 71 164 106 262 80 50 -14 114 -68 132 -111 12
-29 14 -30 86 -30 l74 0 0 150 0 150 -70 0 -70 0 0 -35 0 -36 -42 25 c-89 52
-231 69 -345 42z"/>
<path d="M6202 951 c-99 -34 -151 -107 -167 -237 l-6 -51 47 -7 c26 -3 61 -6
79 -6 31 0 33 2 39 52 12 87 43 128 99 128 32 0 73 -33 81 -65 15 -61 -9 -100
-147 -238 -94 -94 -140 -148 -160 -188 -27 -54 -47 -142 -47 -206 l0 -33 274
0 273 0 6 83 c4 45 7 101 7 125 l0 42 -70 0 -70 0 0 -55 0 -55 -126 0 -125 0
7 23 c20 65 76 125 204 219 135 100 170 152 170 255 0 174 -181 279 -368 214z"/>
<path d="M6916 956 c-56 -21 -86 -45 -123 -100 -62 -91 -89 -246 -73 -417 21
-216 110 -334 263 -346 208 -17 319 136 319 437 0 217 -56 356 -166 412 -53
27 -165 34 -220 14z m143 -152 c36 -46 45 -101 46 -264 0 -224 -26 -310 -95
-310 -72 0 -105 115 -97 335 6 150 15 198 48 239 28 35 70 35 98 0z"/>
<path d="M7500 890 l0 -70 60 0 60 0 0 -290 0 -290 -55 0 -55 0 0 -70 0 -70
210 0 210 0 0 70 0 70 -60 0 -60 0 0 360 0 360 -155 0 -155 0 0 -70z"/>
<path d="M8167 873 c-4 -49 -10 -149 -13 -223 l-7 -135 66 -32 66 -32 34 34
c25 25 44 35 65 35 73 0 109 -35 118 -116 14 -112 -36 -180 -124 -171 -52 6
-78 28 -94 79 l-11 39 -46 -6 c-123 -16 -121 -14 -99 -76 20 -61 64 -114 120
-144 49 -28 61 -30 153 -30 85 0 107 4 147 23 95 47 148 140 148 262 0 117
-48 207 -133 252 -61 32 -175 32 -236 0 l-44 -23 6 38 c4 21 7 68 7 106 l0 67
114 0 114 0 6 -30 c5 -29 7 -30 66 -30 l60 0 0 100 0 100 -239 0 -238 0 -6
-87z"/>
<path d="M1730 694 c-30 -8 -69 -25 -87 -37 -41 -30 -78 -76 -67 -86 5 -4 38
-13 73 -19 59 -10 66 -10 93 10 40 28 106 35 146 14 38 -20 52 -44 52 -89 l0
-35 -47 15 c-63 19 -158 12 -218 -17 -111 -54 -147 -191 -73 -285 55 -70 198
-94 286 -47 52 27 52 27 52 2 0 -19 7 -20 145 -20 l145 0 0 70 0 70 -50 0 -50
0 0 160 c0 178 -10 218 -67 258 -70 49 -221 66 -333 36z m170 -354 c32 -16 40
-26 40 -48 0 -21 -9 -34 -42 -55 -50 -32 -96 -35 -126 -7 -22 21 -30 73 -14
96 25 37 85 43 142 14z"/>
<path d="M2512 696 c-82 -27 -141 -76 -180 -151 -36 -68 -38 -205 -6 -276 29
-61 85 -116 153 -148 49 -22 69 -26 156 -26 143 0 211 33 276 134 l29 45 -73
31 -72 32 -36 -37 c-81 -84 -207 -76 -245 15 -21 51 -18 143 6 182 51 85 188
83 243 -3 21 -33 24 -34 90 -34 l67 0 0 120 0 120 -65 0 c-62 0 -65 -1 -65
-23 l0 -24 -50 25 c-62 30 -165 38 -228 18z"/>
<path d="M3223 691 c-262 -90 -288 -464 -40 -571 126 -54 307 -32 400 51 26
22 47 46 47 53 0 6 -30 22 -66 34 l-67 21 -43 -31 c-55 -39 -123 -47 -174 -21
-40 21 -80 75 -80 109 l0 24 226 0 225 0 -6 48 c-15 112 -34 154 -95 214 -43
42 -71 61 -111 72 -69 21 -151 20 -216 -3z m167 -116 c30 -15 60 -61 60 -90 0
-13 -19 -15 -126 -15 -125 0 -125 0 -119 23 24 82 110 121 185 82z"/>
<path d="M4135 691 c-45 -21 -99 -73 -114 -111 -8 -20 -10 -11 -10 48 l-1 72
-140 0 -140 0 0 -70 0 -70 55 0 55 0 0 -160 0 -160 -60 0 -60 0 0 -70 0 -70
215 0 215 0 0 70 0 70 -60 0 -60 0 0 73 c1 131 53 201 160 213 l60 7 0 88 0
89 -37 0 c-21 0 -56 -9 -78 -19z"/>
<path d="M4523 691 c-262 -90 -288 -464 -40 -571 126 -54 307 -32 400 51 26
22 47 46 47 53 0 6 -30 22 -66 34 l-67 21 -43 -31 c-55 -39 -123 -47 -174 -21
-40 21 -80 75 -80 109 l0 24 226 0 225 0 -6 48 c-15 112 -34 154 -95 214 -43
42 -71 61 -111 72 -69 21 -151 20 -216 -3z m167 -116 c30 -15 60 -61 60 -90 0
-13 -19 -15 -126 -15 -125 0 -125 0 -119 23 24 82 110 121 185 82z"/>
<path d="M5178 699 c-20 -6 -55 -26 -77 -45 -72 -62 -79 -151 -18 -220 39 -45
88 -67 214 -94 54 -12 108 -28 121 -36 51 -33 11 -85 -71 -91 -63 -5 -116 18
-135 60 -12 25 -17 27 -78 27 l-64 0 0 -100 0 -100 65 0 c51 0 65 3 65 15 0
19 5 19 37 -2 43 -28 194 -25 250 4 61 33 96 83 101 148 6 70 -2 97 -39 139
-37 42 -89 63 -227 90 -121 24 -145 42 -102 78 21 17 35 20 88 15 51 -4 69
-10 91 -31 23 -22 36 -26 89 -26 l62 0 0 85 0 85 -64 0 c-42 0 -66 -4 -68 -12
-4 -10 -11 -10 -34 1 -38 17 -159 23 -206 10z"/>
</g>
</svg>
